<svg xmlns="http://www.w3.org/2000/svg" xmlns:xlink="http://www.w3.org/1999/xlink" width="40" zoomAndPan="magnify" viewBox="0 0 30 30.000001" height="40" preserveAspectRatio="xMidYMid meet" version="1.0"><defs><g/><clipPath id="ff1426d838"><path d="M 0.484375 3 L 29 3 L 29 26 L 0.484375 26 Z M 0.484375 3 " clip-rule="nonzero"/></clipPath></defs><g clip-path="url(#ff1426d838)"><g fill="#000000" fill-opacity="1"><g transform="translate(3.387096, 24.508112)"><g><path d="M 2.824219 -15.40625 C 4.992188 -17.613281 12.65625 -18.65625 18.113281 -18.65625 C 21.367188 -18.65625 23.84375 -18.269531 23.84375 -17.574219 C 23.921875 -17.457031 24.039062 -17.226562 24.113281 -17.226562 C 24.113281 -17.226562 24.152344 -17.261719 24.152344 -17.300781 C 25.277344 -19.816406 21.675781 -20.785156 16.992188 -20.785156 C 15.328125 -20.785156 13.546875 -20.667969 11.804688 -20.4375 C 9.636719 -20.167969 -3.445312 -17.613281 2.089844 -13.507812 C 5.457031 -10.992188 5.921875 -7.664062 5.265625 -3.753906 C 4.722656 -2.207031 3.753906 1.316406 6.191406 1.316406 L 6.464844 1.316406 C 5.226562 -0.96875 12.695312 -16.0625 15.289062 -17.1875 C 15.210938 -17.339844 15.171875 -17.339844 15.019531 -17.417969 C 14.746094 -17.574219 14.476562 -17.6875 14.207031 -17.6875 C 13.507812 -17.6875 12.890625 -17.070312 12.386719 -16.449219 L 12.347656 -16.410156 C 9.910156 -13.160156 8.089844 -9.949219 6.386719 -6.308594 C 6.347656 -6.191406 6.308594 -6.039062 6.269531 -6.039062 C 6.269531 -8.902344 5.613281 -11.496094 3.367188 -13.429688 C 2.59375 -14.089844 1.820312 -14.398438 2.824219 -15.40625 Z M 2.824219 -15.40625 "/></g></g></g></g></svg>