<svg xmlns="http://www.w3.org/2000/svg" xmlns:xlink="http://www.w3.org/1999/xlink" width="320" zoomAndPan="magnify" viewBox="0 0 240 82.499998" height="110" preserveAspectRatio="xMidYMid meet" version="1.0"><defs><g/><clipPath id="c48d7dcd79"><path d="M 51.609375 59.582031 L 194.742188 59.582031 L 194.742188 67.78125 L 51.609375 67.78125 Z M 51.609375 59.582031 " clip-rule="nonzero"/></clipPath></defs><g clip-path="url(#c48d7dcd79)"><path fill="#000000" d="M 56.460938 63 C 54.277344 63.46875 52.644531 64.144531 51.984375 64.882812 C 49.5 67.648438 60.109375 68.390625 61.355469 67.246094 C 58.988281 67.265625 57.738281 67.0625 56.992188 66.828125 C 80.167969 60.699219 156.71875 62.296875 194.742188 66.410156 C 190.066406 61.03125 88.640625 56.066406 56.460938 63 Z M 56.460938 63 " fill-opacity="1" fill-rule="nonzero"/></g><g fill="#000000" fill-opacity="1"><g transform="translate(17.924889, 57.700298)"><g><path d="M 4.867188 -26.539062 C 8.601562 -30.339844 21.804688 -32.140625 31.207031 -32.140625 C 36.808594 -32.140625 41.074219 -31.472656 41.074219 -30.273438 C 41.210938 -30.074219 41.410156 -29.671875 41.542969 -29.671875 C 41.542969 -29.671875 41.609375 -29.738281 41.609375 -29.808594 C 43.542969 -34.140625 37.34375 -35.808594 29.273438 -35.808594 C 26.40625 -35.808594 23.339844 -35.609375 20.339844 -35.207031 C 16.605469 -34.742188 -5.933594 -30.339844 3.601562 -23.273438 C 9.402344 -18.9375 10.203125 -13.203125 9.070312 -6.46875 C 8.136719 -3.800781 6.46875 2.265625 10.667969 2.265625 L 11.136719 2.265625 C 9.003906 -1.667969 21.871094 -27.671875 26.339844 -29.605469 C 26.207031 -29.875 26.140625 -29.875 25.871094 -30.007812 C 25.40625 -30.273438 24.9375 -30.472656 24.472656 -30.472656 C 23.273438 -30.472656 22.203125 -29.40625 21.339844 -28.339844 L 21.273438 -28.273438 C 17.070312 -22.671875 13.9375 -17.136719 11.003906 -10.871094 C 10.9375 -10.667969 10.871094 -10.402344 10.800781 -10.402344 C 10.800781 -15.335938 9.667969 -19.804688 5.800781 -23.136719 C 4.46875 -24.273438 3.132812 -24.804688 4.867188 -26.539062 Z M 4.867188 -26.539062 "/></g></g></g><g fill="#000000" fill-opacity="1"><g transform="translate(36.326917, 57.700298)"><g><path d="M 12.734375 -5.203125 C 12.601562 -5.601562 12.667969 -6.269531 13.003906 -7.335938 C 13.269531 -8.933594 14.136719 -11.871094 15.46875 -12.9375 C 16.003906 -13.269531 15.9375 -13.335938 15.535156 -13.804688 C 14.871094 -14.601562 14.136719 -14.9375 13.46875 -14.9375 C 13.203125 -14.9375 12.9375 -14.871094 12.601562 -14.738281 C 13.136719 -16.671875 13.46875 -18.804688 12.003906 -20.40625 C 11.601562 -20.804688 11.003906 -21.203125 10.335938 -21.203125 C 9.601562 -21.203125 8.800781 -20.804688 7.867188 -20.003906 C 3.867188 -16.738281 -3.601562 -3.335938 1.667969 -0.933594 C 2.066406 -0.734375 2.332031 -0.601562 2.734375 -0.601562 C 2.867188 -0.601562 3 -0.667969 3.132812 -0.667969 C 4.933594 -1.46875 7.335938 -5.402344 9.335938 -8.667969 C 9.335938 -8.535156 9.335938 -8.46875 9.269531 -8.269531 C 9.003906 -6.46875 8.800781 -4.269531 10.136719 -3 C 10.535156 -2.601562 11.003906 -2.332031 11.601562 -2.332031 C 15.203125 -2.332031 20.605469 -11.136719 21.9375 -13.070312 C 21.738281 -13.804688 21.539062 -13.804688 21.003906 -13.804688 C 20.671875 -13.335938 14.871094 -5 13.136719 -5 C 13.003906 -5 12.871094 -5.066406 12.734375 -5.203125 Z M 10.003906 -16.535156 C 10.535156 -17.003906 10.9375 -17.335938 11.269531 -17.335938 C 11.800781 -17.335938 11.9375 -16.269531 11.667969 -14.070312 C 11.070312 -13.601562 10.734375 -12.9375 10.402344 -12.269531 C 7.933594 -8.867188 4.800781 -3.601562 3.800781 -3.601562 C 2.867188 -4.402344 7.402344 -13.738281 10.003906 -16.535156 Z M 10.003906 -16.535156 "/></g></g></g><g fill="#000000" fill-opacity="1"><g transform="translate(52.662052, 57.700298)"><g><path d="M 19.871094 -3.734375 L 19.871094 -3.933594 C 21.203125 -7.933594 22.9375 -11.535156 24.9375 -15.203125 C 25.671875 -16.671875 23.472656 -17.46875 22.40625 -17.539062 C 22.273438 -17.539062 22.203125 -17.539062 22.136719 -17.46875 C 20.003906 -16.9375 15.335938 -9.9375 13.9375 -7.933594 C 13.738281 -7.734375 13.667969 -7.46875 13.601562 -7.46875 C 13.601562 -7.46875 13.667969 -7.601562 13.738281 -7.933594 C 15.335938 -11.535156 17.269531 -14.9375 18.9375 -18.472656 L 19.003906 -18.605469 C 19.335938 -19.472656 19.335938 -20.203125 18.738281 -20.804688 C 18.269531 -21.273438 17.335938 -21.738281 16.605469 -21.738281 C 16.535156 -21.738281 16.335938 -21.738281 16.269531 -21.671875 C 15.335938 -21.339844 4.199219 -5.933594 3 -4.132812 L 8.46875 -14.402344 C 8.800781 -15.070312 9.070312 -15.335938 8.601562 -16.003906 L 8.46875 -16.070312 C 7.867188 -16.738281 7.066406 -17.003906 6.132812 -17.003906 C 5.203125 -17.003906 4.667969 -16.804688 4.269531 -15.9375 C 1.867188 -10.800781 1.332031 -10.003906 -0.601562 -4.601562 C -0.933594 -3.535156 -1.199219 -2.332031 -0.464844 -1.398438 C 0 -0.867188 1.332031 -0.0664062 2.066406 -0.132812 C 2.46875 -0.132812 2.933594 -1.132812 3.199219 -1.46875 C 6.535156 -6.535156 10.203125 -11.535156 13.9375 -16.203125 C 12.402344 -13.46875 11.203125 -10.871094 10.335938 -8.203125 C 10.070312 -7.203125 9.800781 -6 10.269531 -4.933594 C 10.46875 -4.269531 11.269531 -3.402344 12.003906 -3.335938 C 12.402344 -3.402344 12.535156 -3.601562 12.667969 -3.800781 C 14.9375 -7.066406 17.335938 -10.136719 19.738281 -13.269531 C 19.871094 -13.402344 19.9375 -13.601562 19.9375 -13.601562 C 20.003906 -13.601562 19.9375 -13.402344 19.804688 -13.203125 C 18.605469 -10.402344 17.46875 -7.601562 16.804688 -4.601562 C 16.605469 -3.601562 16.605469 -2.066406 17.671875 -1.332031 C 18.070312 -1.132812 18.402344 -0.933594 18.804688 -0.933594 C 22.738281 -0.933594 28.605469 -9.402344 30.875 -12.871094 C 30.742188 -13.335938 30.539062 -13.601562 30.273438 -13.601562 C 30.207031 -13.601562 30.140625 -13.601562 30.074219 -13.46875 C 29.941406 -13.335938 28.738281 -11.667969 27.339844 -9.800781 C 26.539062 -8.800781 21.40625 -2.734375 19.9375 -2.734375 C 19.738281 -2.734375 19.671875 -3 19.871094 -3.734375 Z M 19.871094 -3.734375 "/></g></g></g><g fill="#000000" fill-opacity="1"><g transform="translate(78.1982, 57.700298)"><g><path d="M 4.335938 0.132812 C 9.070312 0.132812 13.667969 -6.269531 16.136719 -9.667969 C 17.003906 -10.9375 17.671875 -11.9375 18.070312 -12.46875 C 18.070312 -13.003906 17.671875 -13.203125 17.402344 -13.203125 C 17.335938 -13.203125 17.269531 -13.203125 17.269531 -13.136719 C 14.601562 -9.46875 9.070312 -2.066406 4.199219 -2.066406 C 2.265625 -2.265625 2.667969 -4.667969 3.800781 -7.402344 C 4.199219 -6.867188 4.933594 -6.601562 5.734375 -6.601562 C 8 -6.667969 10.734375 -10.070312 11.601562 -12.136719 L 11.601562 -12.269531 C 11.800781 -12.601562 11.871094 -13.003906 12.003906 -13.46875 C 12.402344 -15.605469 10.871094 -17.46875 8.800781 -17.46875 C 8.070312 -17.46875 7.269531 -17.269531 6.46875 -16.738281 C 2.332031 -14.003906 -2.667969 -6 1.265625 -1.265625 C 2 -0.265625 3.066406 0.132812 4.335938 0.132812 Z M 9.800781 -14.804688 C 10.070312 -14.804688 10.269531 -14.738281 10.402344 -14.535156 C 10.535156 -14.203125 10.46875 -13.804688 10.335938 -13.269531 C 9.335938 -10.871094 6.335938 -8.136719 5 -8.136719 C 4.667969 -8.136719 4.46875 -8.269531 4.335938 -8.601562 C 6 -11.734375 8.535156 -14.804688 9.800781 -14.804688 Z M 9.800781 -14.804688 "/></g></g></g><g fill="#000000" fill-opacity="1"><g transform="translate(91.332987, 57.700298)"><g><path d="M 11.734375 -21.003906 C 11.535156 -21.273438 11.203125 -21.539062 10.9375 -21.804688 C 11.871094 -23.339844 12.601562 -24.804688 13.070312 -26.074219 C 13.46875 -27.207031 13.003906 -30.207031 11.46875 -30.074219 C 8.667969 -29.875 5.535156 -24.871094 8.867188 -21.539062 C 6.800781 -18.070312 4.46875 -13.601562 3 -11.601562 C 2.933594 -11.46875 3 -10.800781 3.46875 -10.800781 C 3.601562 -10.800781 3.800781 -10.871094 4.199219 -11.136719 C 5.734375 -13.070312 7.136719 -16.136719 10.003906 -20.339844 C 10.203125 -20.070312 10.402344 -19.804688 10.46875 -19.605469 C 12.003906 -16.671875 3.535156 -6.335938 3.667969 -1.265625 C 3.667969 0.265625 4.402344 2.734375 6.335938 2.734375 C 6.535156 2.734375 6.667969 2.667969 6.867188 2.601562 C 10.402344 0.867188 17.871094 -11.269531 18.804688 -12.535156 C 18.9375 -12.734375 18.804688 -13.070312 18.539062 -13.203125 C 18.402344 -13.269531 18.335938 -13.335938 18.203125 -13.335938 C 18.070312 -13.335938 18.003906 -13.269531 17.804688 -13.136719 C 16.269531 -11.070312 8.601562 0.734375 6.667969 0.398438 C 7.734375 -3.46875 11.800781 -10.402344 12.734375 -13.003906 C 13.738281 -15.46875 14.535156 -19.203125 11.734375 -21.003906 Z M 11.269531 -27.273438 C 11.601562 -27.273438 11.667969 -26.871094 11.269531 -25.804688 C 11.003906 -24.9375 10.535156 -24.003906 10.070312 -23.273438 C 8.867188 -24.871094 10.667969 -27.273438 11.269531 -27.273438 Z M 11.269531 -27.273438 "/></g></g></g><g fill="#000000" fill-opacity="1"><g transform="translate(105.067835, 57.700298)"><g/></g></g><g fill="#000000" fill-opacity="1"><g transform="translate(113.068716, 57.700298)"><g><path d="M 19.605469 -28.671875 C 20.070312 -29.605469 20.539062 -30.40625 21.136719 -31.273438 C 21.539062 -31.808594 21.472656 -31.875 20.804688 -31.941406 C 18.671875 -31.941406 18.070312 -31.140625 16.9375 -29.472656 L 16.335938 -28.273438 C 14.46875 -24.804688 11.601562 -19.269531 9.070312 -13.804688 L 8.535156 -14.535156 C 8.402344 -14.601562 8.335938 -14.601562 8.203125 -14.601562 C 7.601562 -14.601562 6.601562 -13.601562 6.402344 -13.070312 C 6.335938 -12.871094 6.800781 -12.003906 7.667969 -10.734375 C 5.132812 -5.066406 3.265625 0 3.402344 1.933594 C 3.601562 4.335938 5.800781 5.46875 6.867188 5.46875 C 7.269531 5.46875 7.601562 5.269531 7.535156 5 C 7.46875 4.335938 6.601562 5.203125 6.535156 3.867188 C 6.402344 2.265625 8.203125 -2.800781 10.136719 -7.734375 C 13.335938 -4.269531 18.203125 -0.398438 23.070312 -0.398438 C 26.339844 -0.398438 29.605469 -2.132812 32.472656 -6.800781 C 32.675781 -7.136719 32.539062 -7.601562 32.207031 -7.734375 C 32.140625 -7.800781 32.007812 -7.867188 31.875 -7.867188 C 31.675781 -7.867188 31.40625 -7.734375 31.273438 -7.535156 C 29.273438 -4.199219 26.871094 -2.867188 24.40625 -2.867188 C 20.203125 -2.867188 15.738281 -6.535156 12.269531 -10.203125 C 26.804688 -13.136719 43.875 -31.140625 31.40625 -39.207031 C 29.140625 -40.675781 26.339844 -41.277344 23.339844 -41.277344 C 9.867188 -41.277344 -7.402344 -28.207031 3.734375 -16.535156 C 3.933594 -16.335938 4.132812 -16.269531 4.335938 -16.269531 C 4.402344 -16.269531 4.535156 -16.269531 4.667969 -16.402344 C 4.933594 -16.671875 4.734375 -17.003906 4.402344 -17.269531 C -5 -26.941406 13.335938 -37.808594 24.339844 -37.808594 C 27.871094 -37.808594 30.671875 -36.675781 31.539062 -34.007812 C 33.941406 -26.804688 23.070312 -15.871094 12.335938 -13.136719 C 14.535156 -18.402344 16.871094 -23.671875 19.605469 -28.671875 Z M 19.605469 -28.671875 "/></g></g></g><g fill="#000000" fill-opacity="1"><g transform="translate(143.73877, 57.700298)"><g><path d="M 12.734375 -5.203125 C 12.601562 -5.601562 12.667969 -6.269531 13.003906 -7.335938 C 13.269531 -8.933594 14.136719 -11.871094 15.46875 -12.9375 C 16.003906 -13.269531 15.9375 -13.335938 15.535156 -13.804688 C 14.871094 -14.601562 14.136719 -14.9375 13.46875 -14.9375 C 13.203125 -14.9375 12.9375 -14.871094 12.601562 -14.738281 C 13.136719 -16.671875 13.46875 -18.804688 12.003906 -20.40625 C 11.601562 -20.804688 11.003906 -21.203125 10.335938 -21.203125 C 9.601562 -21.203125 8.800781 -20.804688 7.867188 -20.003906 C 3.867188 -16.738281 -3.601562 -3.335938 1.667969 -0.933594 C 2.066406 -0.734375 2.332031 -0.601562 2.734375 -0.601562 C 2.867188 -0.601562 3 -0.667969 3.132812 -0.667969 C 4.933594 -1.46875 7.335938 -5.402344 9.335938 -8.667969 C 9.335938 -8.535156 9.335938 -8.46875 9.269531 -8.269531 C 9.003906 -6.46875 8.800781 -4.269531 10.136719 -3 C 10.535156 -2.601562 11.003906 -2.332031 11.601562 -2.332031 C 15.203125 -2.332031 20.605469 -11.136719 21.9375 -13.070312 C 21.738281 -13.804688 21.539062 -13.804688 21.003906 -13.804688 C 20.671875 -13.335938 14.871094 -5 13.136719 -5 C 13.003906 -5 12.871094 -5.066406 12.734375 -5.203125 Z M 10.003906 -16.535156 C 10.535156 -17.003906 10.9375 -17.335938 11.269531 -17.335938 C 11.800781 -17.335938 11.9375 -16.269531 11.667969 -14.070312 C 11.070312 -13.601562 10.734375 -12.9375 10.402344 -12.269531 C 7.933594 -8.867188 4.800781 -3.601562 3.800781 -3.601562 C 2.867188 -4.402344 7.402344 -13.738281 10.003906 -16.535156 Z M 10.003906 -16.535156 "/></g></g></g><g fill="#000000" fill-opacity="1"><g transform="translate(160.073905, 57.700298)"><g><path d="M 11.070312 -15.46875 C 11.203125 -15.535156 1.933594 -6.132812 -0.265625 -3.402344 C -0.464844 -3.132812 -0.464844 -2.933594 -0.265625 -2.734375 C -0.199219 -1.867188 0 -0.535156 1.132812 -0.535156 C 1.332031 -0.535156 1.667969 -0.601562 2.066406 -0.734375 C 3.667969 -1.332031 5.800781 -1.933594 7.867188 -1.933594 C 8.800781 -1.933594 9.667969 -1.734375 10.46875 -1.46875 C 10.667969 -1.398438 10.734375 -1.398438 10.871094 -1.398438 C 11.003906 -1.398438 11.003906 -1.535156 10.9375 -1.933594 C 10.46875 -3.800781 7.933594 -4.269531 5.667969 -4.269531 C 4.601562 -4.269531 3.667969 -4.199219 3 -4.132812 C 6.667969 -8.136719 14.070312 -15.671875 14.804688 -16.136719 C 15.871094 -16.804688 14.402344 -18.472656 13.335938 -18.472656 L 13.203125 -18.472656 C 11.535156 -18.203125 7.800781 -17.539062 5.203125 -17.539062 C 4.066406 -17.539062 3.132812 -17.671875 2.734375 -18.003906 C 2 -18.003906 2.066406 -14.804688 4.601562 -14.601562 C 4.800781 -14.601562 4.933594 -14.535156 5 -14.535156 C 4.402344 -13.402344 3.734375 -12.402344 3.199219 -11.734375 C 3.132812 -11.667969 3.132812 -11.601562 3.066406 -11.601562 C 2.933594 -11.136719 3.199219 -10.734375 3.601562 -10.734375 L 3.734375 -10.734375 C 4.066406 -10.871094 4.402344 -11.402344 4.867188 -12.003906 C 5.335938 -12.871094 5.867188 -13.871094 6.335938 -14.601562 C 8.46875 -14.738281 10.800781 -15.402344 11.070312 -15.46875 Z M 11.070312 -15.46875 "/></g></g></g><g fill="#000000" fill-opacity="1"><g transform="translate(172.941984, 57.700298)"><g><path d="M 22.738281 -13.9375 C 22.605469 -13.738281 20.804688 -11.203125 19.070312 -9.070312 L 18.9375 -8.933594 C 18.136719 -7.933594 13.269531 -2.132812 12.269531 -2.132812 C 12.203125 -2.132812 12.136719 -2.199219 12.136719 -2.199219 C 11.46875 -3 16.804688 -13.070312 17.335938 -14.671875 C 17.738281 -15.9375 16.269531 -17.335938 14.738281 -17.335938 C 14.070312 -17.335938 13.335938 -17.070312 12.871094 -16.402344 C 9.269531 -12.402344 6.335938 -8.667969 3.601562 -4.535156 C 6.667969 -13.335938 14.136719 -26.339844 17.003906 -29.007812 C 17.605469 -29.539062 16.203125 -31.339844 14.402344 -31.339844 C 13.070312 -31.339844 12.601562 -30.671875 11.9375 -29.605469 C 8.535156 -23.9375 1 -9.535156 0.199219 -3.132812 C 0 -1.667969 0.398438 -0.265625 2.332031 0 C 5.402344 -5 9.800781 -11.003906 13.46875 -14.9375 C 12.136719 -12.667969 6.132812 -1.132812 10.871094 -0.199219 C 11.070312 -0.132812 11.203125 -0.0664062 11.46875 -0.0664062 C 13.269531 -0.0664062 18.136719 -5.867188 19.269531 -7.402344 C 21.273438 -9.667969 22.9375 -12.402344 23.605469 -13.269531 C 23.472656 -13.804688 23.207031 -14.003906 22.9375 -14.003906 C 22.871094 -14.003906 22.804688 -14.003906 22.738281 -13.9375 Z M 22.738281 -13.9375 "/></g></g></g><g fill="#000000" fill-opacity="1"><g transform="translate(190.94397, 57.700298)"><g><path d="M 4.335938 0.132812 C 9.070312 0.132812 13.667969 -6.269531 16.136719 -9.667969 C 17.003906 -10.9375 17.671875 -11.9375 18.070312 -12.46875 C 18.070312 -13.003906 17.671875 -13.203125 17.402344 -13.203125 C 17.335938 -13.203125 17.269531 -13.203125 17.269531 -13.136719 C 14.601562 -9.46875 9.070312 -2.066406 4.199219 -2.066406 C 2.265625 -2.265625 2.667969 -4.667969 3.800781 -7.402344 C 4.199219 -6.867188 4.933594 -6.601562 5.734375 -6.601562 C 8 -6.667969 10.734375 -10.070312 11.601562 -12.136719 L 11.601562 -12.269531 C 11.800781 -12.601562 11.871094 -13.003906 12.003906 -13.46875 C 12.402344 -15.605469 10.871094 -17.46875 8.800781 -17.46875 C 8.070312 -17.46875 7.269531 -17.269531 6.46875 -16.738281 C 2.332031 -14.003906 -2.667969 -6 1.265625 -1.265625 C 2 -0.265625 3.066406 0.132812 4.335938 0.132812 Z M 9.800781 -14.804688 C 10.070312 -14.804688 10.269531 -14.738281 10.402344 -14.535156 C 10.535156 -14.203125 10.46875 -13.804688 10.335938 -13.269531 C 9.335938 -10.871094 6.335938 -8.136719 5 -8.136719 C 4.667969 -8.136719 4.46875 -8.269531 4.335938 -8.601562 C 6 -11.734375 8.535156 -14.804688 9.800781 -14.804688 Z M 9.800781 -14.804688 "/></g></g></g><g fill="#000000" fill-opacity="1"><g transform="translate(204.078757, 57.700298)"><g><path d="M 22.738281 -13.9375 C 22.605469 -13.738281 20.804688 -11.203125 19.070312 -9.070312 L 18.9375 -8.933594 C 18.136719 -7.933594 13.269531 -2.132812 12.269531 -2.132812 C 12.203125 -2.132812 12.136719 -2.199219 12.136719 -2.199219 C 11.46875 -3 16.804688 -13.070312 17.335938 -14.671875 C 17.738281 -15.9375 16.269531 -17.335938 14.738281 -17.335938 C 14.070312 -17.335938 13.335938 -17.070312 12.871094 -16.402344 C 9.269531 -12.402344 6.335938 -8.667969 3.601562 -4.535156 C 6.667969 -13.335938 14.136719 -26.339844 17.003906 -29.007812 C 17.605469 -29.539062 16.203125 -31.339844 14.402344 -31.339844 C 13.070312 -31.339844 12.601562 -30.671875 11.9375 -29.605469 C 8.535156 -23.9375 1 -9.535156 0.199219 -3.132812 C 0 -1.667969 0.398438 -0.265625 2.332031 0 C 5.402344 -5 9.800781 -11.003906 13.46875 -14.9375 C 12.136719 -12.667969 6.132812 -1.132812 10.871094 -0.199219 C 11.070312 -0.132812 11.203125 -0.0664062 11.46875 -0.0664062 C 13.269531 -0.0664062 18.136719 -5.867188 19.269531 -7.402344 C 21.273438 -9.667969 22.9375 -12.402344 23.605469 -13.269531 C 23.472656 -13.804688 23.207031 -14.003906 22.9375 -14.003906 C 22.871094 -14.003906 22.804688 -14.003906 22.738281 -13.9375 Z M 22.738281 -13.9375 "/></g></g></g></svg>