<?xml version="1.0" encoding="iso-8859-1"?>
<!-- Generator: Adobe Illustrator 19.0.0, SVG Export Plug-In . SVG Version: 6.00 Build 0)  -->
<svg version="1.1" id="Layer_1" xmlns="http://www.w3.org/2000/svg" xmlns:xlink="http://www.w3.org/1999/xlink" x="0px" y="0px"
	 viewBox="0 0 483.504 483.504" style="enable-background:new 0 0 483.504 483.504;" xml:space="preserve">
<g id="SVGCleanerId_0">
	<g>
		<g>
			<path d="M122.216,54.527c0.544,0.12,1.088,0.168,1.624,0.168c2.92,0,5.6-1.608,6.976-4.136l0.624,0.208
				c4.184,1.424,8.72-0.816,10.144-5c1.424-4.184-0.816-8.728-5-10.144l-8.856-3.008c-2.168-0.744-4.552-0.52-6.544,0.632
				c-1.992,1.144-3.392,3.08-3.856,5.328l-1.336,6.504C115.104,49.407,117.888,53.639,122.216,54.527z"/>
			<path d="M48.84,178.663c1.112,3.36,4.24,5.488,7.592,5.488c0.84,0,1.688-0.128,2.52-0.416c4.192-1.392,6.464-5.92,5.072-10.112
				l-14.096-42.432l62.16-12.232c3.168-0.616,5.64-3.072,6.296-6.232l6.816-33.088c0.888-4.328-1.896-8.56-6.224-9.448
				c-4.328-0.912-8.56,1.888-9.448,6.224l-5.744,27.872l-65.848,12.96c-2.256,0.44-4.216,1.832-5.368,3.816
				c-1.152,1.984-1.4,4.376-0.68,6.552L48.84,178.663z"/>
			<path d="M46.968,196.663l-12,10.584c-3.312,2.928-3.624,7.976-0.704,11.296c1.576,1.792,3.784,2.704,6,2.704
				c1.88,0,3.768-0.656,5.296-2l12-10.584c3.312-2.928,3.624-7.976,0.704-11.296C55.336,194.055,50.288,193.743,46.968,196.663z"/>
			<path d="M161.76,61.055l29.416,9.984c0.84,0.288,1.712,0.424,2.568,0.424c2.248,0,4.44-0.944,5.984-2.696l42.016-47.448
				l31.488,35.568c2.936,3.312,7.992,3.608,11.296,0.68c3.304-2.936,3.616-7.984,0.688-11.296l-37.48-42.32
				c-3.032-3.432-8.944-3.432-11.976,0l-44.48,50.232l-24.376-8.272c-4.192-1.424-8.728,0.816-10.144,5
				C155.336,55.095,157.576,59.639,161.76,61.055z"/>
			<path d="M352.312,50.639l12.8,62.104c0.648,3.152,3.128,5.608,6.288,6.232l62.464,12.288c-0.144,3.472,2,6.768,5.472,7.92
				c0.832,0.28,1.688,0.416,2.52,0.416c3.352,0,6.48-2.128,7.568-5.488l2.16-6.488c0.72-2.176,0.48-4.56-0.68-6.552
				c-1.168-1.984-3.12-3.376-5.368-3.816l-65.84-12.96l-13.544-65.728c-0.456-2.248-1.864-4.192-3.856-5.328
				s-4.368-1.368-6.544-0.632l-7.864,2.672c-4.184,1.424-6.424,5.968-5.008,10.152C344.224,49.375,348.36,51.583,352.312,50.639z"/>
			<path d="M305.008,66.287c0.856,0,1.72-0.136,2.576-0.432l15.16-5.144c4.184-1.416,6.424-5.96,5.008-10.144
				c-1.424-4.176-5.952-6.408-10.152-5l-15.16,5.144c-4.184,1.416-6.424,5.96-5.008,10.144
				C298.56,64.183,301.672,66.287,305.008,66.287z"/>
			<path d="M434.296,154.375c-4.24-1.384-8.72,0.88-10.12,5.072l-5.04,15.184c-1.392,4.192,0.888,8.72,5.072,10.112
				c0.84,0.272,1.688,0.408,2.52,0.408c3.352,0,6.48-2.128,7.6-5.48l5.04-15.184C440.76,160.295,438.48,155.767,434.296,154.375z"/>
			<path d="M480.8,235.703l-43.488-38.328c-3.304-2.92-8.36-2.608-11.288,0.712c-2.92,3.312-2.6,8.368,0.712,11.288l36.672,32.328
				l-47.504,41.872c-2.408,2.12-3.312,5.48-2.304,8.52l19.96,60.096l-6.008,1.176c-4.336,0.856-7.152,5.056-6.304,9.392
				c0.744,3.816,4.088,6.456,7.84,6.456c0.512,0,1.032-0.048,1.56-0.152l14.912-2.936c2.248-0.44,4.2-1.832,5.368-3.816
				c1.16-1.984,1.4-4.376,0.68-6.552l-21.16-63.696l50.344-44.368c1.728-1.512,2.712-3.704,2.712-6S482.52,237.207,480.8,235.703z"
				/>
			<path d="M369.968,386.719c-4.368-0.904-8.568,1.896-9.456,6.224l-8.192,39.76l-59.992-20.368c-3.048-1.04-6.416-0.136-8.56,2.272
				l-25.144,28.392c-2.928,3.312-2.616,8.368,0.688,11.296c1.52,1.344,3.416,2.008,5.304,2.008c2.208,0,4.4-0.904,6-2.696
				l21.608-24.408l63.536,21.568c2.168,0.744,4.552,0.512,6.544-0.632c1.992-1.144,3.392-3.08,3.856-5.328l10.024-48.64
				C377.08,391.847,374.296,387.607,369.968,386.719z"/>
			<path d="M396.16,359.543l-15.696,3.088c-4.328,0.856-7.152,5.056-6.304,9.392c0.744,3.816,4.088,6.456,7.84,6.456
				c0.504,0,1.024-0.048,1.56-0.144l15.696-3.088c4.328-0.856,7.16-5.056,6.304-9.392
				C404.704,361.519,400.52,358.687,396.16,359.543z"/>
			<path d="M248.688,466.255c-1.44-1.272-3.208-1.928-4.992-2l-4.928-5.56c-2.92-3.304-7.976-3.608-11.296-0.68
				c-3.304,2.928-3.608,7.984-0.68,11.296l8.96,10.12c1.52,1.712,3.704,2.696,5.992,2.696c2.296,0,4.472-0.984,5.984-2.712
				l1.648-1.864C252.312,474.239,252,469.183,248.688,466.255z"/>
			<path d="M199.736,414.623c-2.136-2.416-5.528-3.32-8.56-2.272l-60,20.368l-10.416-50.56c-0.896-4.336-5.128-7.136-9.448-6.224
				c-4.328,0.888-7.112,5.12-6.224,9.448l12.248,59.432c0.464,2.248,1.864,4.184,3.856,5.328c1.224,0.704,2.6,1.056,3.976,1.056
				c0.864,0,1.728-0.144,2.568-0.416l63.544-21.568l14.312,16.16c2.928,3.304,7.984,3.616,11.296,0.68
				c3.304-2.936,3.608-7.984,0.68-11.296L199.736,414.623z"/>
			<path d="M92.216,360.487l-15.696-3.088c-4.336-0.856-8.544,1.976-9.392,6.312c-0.848,4.336,1.976,8.536,6.312,9.392l15.696,3.088
				c0.52,0.104,1.04,0.152,1.552,0.152c3.744,0,7.096-2.64,7.84-6.464C99.376,365.543,96.552,361.343,92.216,360.487z"/>
			<path d="M69.904,292.087c1.016-3.04,0.104-6.4-2.304-8.52l-47.504-41.864l1.456-1.288c3.32-2.92,3.632-7.976,0.712-11.288
				s-7.976-3.632-11.288-0.712l-8.264,7.288c-1.72,1.512-2.712,3.704-2.712,6c0,2.296,0.992,4.488,2.712,6l50.336,44.368
				l-21.152,63.688c-0.728,2.176-0.472,4.552,0.68,6.544c1.152,1.992,3.104,3.384,5.36,3.824l4.104,0.808
				c0.52,0.104,1.04,0.152,1.552,0.152c3.744,0,7.088-2.648,7.848-6.448c0.512-2.616-0.304-5.176-1.984-6.992L69.904,292.087z"/>
		</g>
	</g>
</g>
<g>
	<g>
		<g>
			<path d="M161.76,61.055l29.416,9.984c0.84,0.288,1.712,0.424,2.568,0.424c2.248,0,4.44-0.944,5.984-2.696l42.016-47.448
				l31.488,35.568c2.936,3.312,7.992,3.608,11.296,0.68c3.304-2.936,3.616-7.984,0.688-11.296l-37.48-42.32
				c-3.032-3.432-8.944-3.432-11.976,0l-44.48,50.232l-24.376-8.272c-4.192-1.424-8.728,0.816-10.144,5
				C155.336,55.095,157.576,59.639,161.76,61.055z"/>
			<path d="M48.84,178.663c1.112,3.36,4.24,5.488,7.592,5.488c0.84,0,1.688-0.128,2.52-0.416c4.192-1.392,6.464-5.92,5.072-10.112
				l-14.096-42.432l62.16-12.232c3.168-0.616,5.64-3.072,6.296-6.232l6.816-33.088c0.888-4.328-1.896-8.56-6.224-9.448
				c-4.328-0.912-8.56,1.888-9.448,6.224l-5.744,27.872l-65.848,12.96c-2.256,0.44-4.216,1.832-5.368,3.816
				c-1.152,1.984-1.4,4.376-0.68,6.552L48.84,178.663z"/>
			<path d="M122.216,54.527c0.544,0.12,1.088,0.168,1.624,0.168c2.92,0,5.6-1.608,6.976-4.136l0.624,0.208
				c4.184,1.424,8.72-0.816,10.144-5c1.424-4.184-0.816-8.728-5-10.144l-8.856-3.008c-2.168-0.744-4.552-0.52-6.544,0.632
				c-1.992,1.144-3.392,3.08-3.856,5.328l-1.336,6.504C115.104,49.407,117.888,53.639,122.216,54.527z"/>
			<path d="M434.296,154.375c-4.24-1.384-8.72,0.88-10.12,5.072l-5.04,15.184c-1.392,4.192,0.888,8.72,5.072,10.112
				c0.84,0.272,1.688,0.408,2.52,0.408c3.352,0,6.48-2.128,7.6-5.48l5.04-15.184C440.76,160.295,438.48,155.767,434.296,154.375z"/>
			<path d="M352.312,50.639l12.8,62.104c0.648,3.152,3.128,5.608,6.288,6.232l62.464,12.288c-0.144,3.472,2,6.768,5.472,7.92
				c0.832,0.28,1.688,0.416,2.52,0.416c3.352,0,6.48-2.128,7.568-5.488l2.16-6.488c0.72-2.176,0.48-4.56-0.68-6.552
				c-1.168-1.984-3.12-3.376-5.368-3.816l-65.84-12.96l-13.544-65.728c-0.456-2.248-1.864-4.192-3.856-5.328
				s-4.368-1.368-6.544-0.632l-7.864,2.672c-4.184,1.424-6.424,5.968-5.008,10.152C344.224,49.375,348.36,51.583,352.312,50.639z"/>
			<path d="M46.968,196.663l-12,10.584c-3.312,2.928-3.624,7.976-0.704,11.296c1.576,1.792,3.784,2.704,6,2.704
				c1.88,0,3.768-0.656,5.296-2l12-10.584c3.312-2.928,3.624-7.976,0.704-11.296C55.336,194.055,50.288,193.743,46.968,196.663z"/>
			<path d="M305.008,66.287c0.856,0,1.72-0.136,2.576-0.432l15.16-5.144c4.184-1.416,6.424-5.96,5.008-10.144
				c-1.424-4.176-5.952-6.408-10.152-5l-15.16,5.144c-4.184,1.416-6.424,5.96-5.008,10.144
				C298.56,64.183,301.672,66.287,305.008,66.287z"/>
			<path d="M248.688,466.255c-1.44-1.272-3.208-1.928-4.992-2l-4.928-5.56c-2.92-3.304-7.976-3.608-11.296-0.68
				c-3.304,2.928-3.608,7.984-0.68,11.296l8.96,10.12c1.52,1.712,3.704,2.696,5.992,2.696c2.296,0,4.472-0.984,5.984-2.712
				l1.648-1.864C252.312,474.239,252,469.183,248.688,466.255z"/>
			<path d="M396.16,359.543l-15.696,3.088c-4.328,0.856-7.152,5.056-6.304,9.392c0.744,3.816,4.088,6.456,7.84,6.456
				c0.504,0,1.024-0.048,1.56-0.144l15.696-3.088c4.328-0.856,7.16-5.056,6.304-9.392
				C404.704,361.519,400.52,358.687,396.16,359.543z"/>
			<path d="M369.968,386.719c-4.368-0.904-8.568,1.896-9.456,6.224l-8.192,39.76l-59.992-20.368c-3.048-1.04-6.416-0.136-8.56,2.272
				l-25.144,28.392c-2.928,3.312-2.616,8.368,0.688,11.296c1.52,1.344,3.416,2.008,5.304,2.008c2.208,0,4.4-0.904,6-2.696
				l21.608-24.408l63.536,21.568c2.168,0.744,4.552,0.512,6.544-0.632c1.992-1.144,3.392-3.08,3.856-5.328l10.024-48.64
				C377.08,391.847,374.296,387.607,369.968,386.719z"/>
			<path d="M480.8,235.703l-43.488-38.328c-3.304-2.92-8.36-2.608-11.288,0.712c-2.92,3.312-2.6,8.368,0.712,11.288l36.672,32.328
				l-47.504,41.872c-2.408,2.12-3.312,5.48-2.304,8.52l19.96,60.096l-6.008,1.176c-4.336,0.856-7.152,5.056-6.304,9.392
				c0.744,3.816,4.088,6.456,7.84,6.456c0.512,0,1.032-0.048,1.56-0.152l14.912-2.936c2.248-0.44,4.2-1.832,5.368-3.816
				c1.16-1.984,1.4-4.376,0.68-6.552l-21.16-63.696l50.344-44.368c1.728-1.512,2.712-3.704,2.712-6S482.52,237.207,480.8,235.703z"
				/>
			<path d="M199.736,414.623c-2.136-2.416-5.528-3.32-8.56-2.272l-60,20.368l-10.416-50.56c-0.896-4.336-5.128-7.136-9.448-6.224
				c-4.328,0.888-7.112,5.12-6.224,9.448l12.248,59.432c0.464,2.248,1.864,4.184,3.856,5.328c1.224,0.704,2.6,1.056,3.976,1.056
				c0.864,0,1.728-0.144,2.568-0.416l63.544-21.568l14.312,16.16c2.928,3.304,7.984,3.616,11.296,0.68
				c3.304-2.936,3.608-7.984,0.68-11.296L199.736,414.623z"/>
			<path d="M92.216,360.487l-15.696-3.088c-4.336-0.856-8.544,1.976-9.392,6.312c-0.848,4.336,1.976,8.536,6.312,9.392l15.696,3.088
				c0.52,0.104,1.04,0.152,1.552,0.152c3.744,0,7.096-2.64,7.84-6.464C99.376,365.543,96.552,361.343,92.216,360.487z"/>
			<path d="M69.904,292.087c1.016-3.04,0.104-6.4-2.304-8.52l-47.504-41.864l1.456-1.288c3.32-2.92,3.632-7.976,0.712-11.288
				s-7.976-3.632-11.288-0.712l-8.264,7.288c-1.72,1.512-2.712,3.704-2.712,6c0,2.296,0.992,4.488,2.712,6l50.336,44.368
				l-21.152,63.688c-0.728,2.176-0.472,4.552,0.68,6.544c1.152,1.992,3.104,3.384,5.36,3.824l4.104,0.808
				c0.52,0.104,1.04,0.152,1.552,0.152c3.744,0,7.088-2.648,7.848-6.448c0.512-2.616-0.304-5.176-1.984-6.992L69.904,292.087z"/>
		</g>
	</g>
</g>
<g>
	<g>
		<g>
			<path d="M161.592,145.399c1.672,0,3.36-0.528,4.8-1.6c21.864-16.416,47.92-25.096,75.352-25.096
				c23.408,0,46.248,6.48,66.056,18.744c3.76,2.32,8.688,1.16,11.016-2.592c2.32-3.752,1.168-8.68-2.592-11.008
				c-22.336-13.832-48.088-21.144-74.48-21.144c-30.928,0-60.304,9.792-84.968,28.304c-3.528,2.648-4.248,7.664-1.592,11.2
				C156.76,144.295,159.16,145.399,161.592,145.399z"/>
			<path d="M117.84,193.551c1.12,0.536,2.304,0.792,3.472,0.792c2.968,0,5.832-1.664,7.2-4.528c2.168-4.504,4.64-8.92,7.328-13.12
				c2.392-3.712,1.304-8.664-2.416-11.048c-3.72-2.4-8.664-1.296-11.048,2.416c-3.04,4.744-5.824,9.728-8.272,14.808
				C112.184,186.847,113.856,191.631,117.84,193.551z"/>
			<path d="M349.632,179.887c1.496,2.512,4.152,3.896,6.872,3.896c1.4,0,2.816-0.36,4.096-1.136
				c3.792-2.272,5.024-7.184,2.76-10.976c-2.872-4.808-6.088-9.512-9.552-13.992c-2.712-3.488-7.72-4.128-11.224-1.424
				c-3.496,2.704-4.136,7.728-1.432,11.224C344.232,171.455,347.088,175.623,349.632,179.887z"/>
			<path d="M185.544,356.751c-42.824-21.456-69.44-64.528-69.44-112.4c0-3.8,0.168-7.56,0.496-11.272
				c0.392-4.4-2.864-8.288-7.264-8.672c-4.36-0.376-8.28,2.864-8.672,7.264c-0.376,4.2-0.56,8.464-0.56,12.672
				c0.008,53.968,30,102.52,78.28,126.704c1.152,0.576,2.376,0.848,3.576,0.848c2.928,0,5.752-1.624,7.152-4.408
				C191.096,363.535,189.496,358.735,185.544,356.751z"/>
			<path d="M381.136,219.039c-0.792-4.344-4.904-7.264-9.296-6.448c-4.344,0.792-7.24,4.952-6.456,9.296
				c1.328,7.344,2,14.896,2,22.448c0,52.048-31.288,97.96-79.72,116.984c-4.112,1.608-6.136,6.256-4.52,10.368
				c1.24,3.152,4.256,5.08,7.448,5.08c0.976,0,1.96-0.176,2.92-0.568c54.6-21.44,89.872-73.208,89.872-131.872
				C383.384,235.823,382.632,227.319,381.136,219.039z"/>
			<path d="M243.616,369.959l-1.872,0.016c-4.4,0-8.808-0.224-13.128-0.672c-4.472-0.512-8.328,2.736-8.784,7.128
				c-0.456,4.392,2.736,8.328,7.128,8.784c4.864,0.504,9.84,0.76,14.784,0.76l2.152-0.016c4.416-0.08,7.936-3.728,7.856-8.144
				C251.68,373.399,247.816,369.855,243.616,369.959z"/>
		</g>
	</g>
</g>
<g>
</g>
<g>
</g>
<g>
</g>
<g>
</g>
<g>
</g>
<g>
</g>
<g>
</g>
<g>
</g>
<g>
</g>
<g>
</g>
<g>
</g>
<g>
</g>
<g>
</g>
<g>
</g>
<g>
</g>
</svg>
